<svg width="14" height="14" viewBox="0 0 14 14" fill="none" xmlns="http://www.w3.org/2000/svg">
<path d="M11.9062 2.03125C13.3021 3.42708 14 5.0625 14 6.9375C14 8.85417 13.3125 10.4896 11.9375 11.8438C10.5625 13.1979 8.91667 13.875 7 13.875C5.8125 13.875 4.70833 13.5938 3.6875 13.0312L0 14L1 10.4062C0.375 9.34375 0.0625 8.1875 0.0625 6.9375C0.0625 5.02083 0.739583 3.38542 2.09375 2.03125C3.44792 0.677083 5.08333 0 7 0C8.91667 0 10.5521 0.677083 11.9062 2.03125ZM7 12.7188C8.58333 12.7188 9.94792 12.1562 11.0938 11.0312C12.2396 9.88542 12.8125 8.52083 12.8125 6.9375C12.8333 5.39583 12.25 4.04167 11.0625 2.875C9.9375 1.75 8.58333 1.1875 7 1.1875C5.41667 1.1875 4.05208 1.75 2.90625 2.875C1.78125 4 1.21875 5.35417 1.21875 6.9375C1.21875 8.04167 1.52083 9.0625 2.125 10L2.25 10.2188L1.65625 12.3438L3.84375 11.7812L4.0625 11.9062C4.95833 12.4479 5.9375 12.7188 7 12.7188ZM10.1562 8.375C10.3646 8.47917 10.4792 8.55208 10.5 8.59375C10.5625 8.71875 10.5208 9 10.375 9.4375C10.3125 9.60417 10.1458 9.78125 9.875 9.96875C9.625 10.1354 9.40625 10.2292 9.21875 10.25C8.67708 10.3333 7.97917 10.1875 7.125 9.8125C6.10417 9.375 5.125 8.5 4.1875 7.1875C3.70833 6.54167 3.46875 5.94792 3.46875 5.40625C3.46875 4.88542 3.66667 4.39583 4.0625 3.9375C4.20833 3.8125 4.36458 3.75 4.53125 3.75C4.69792 3.75 4.8125 3.75 4.875 3.75C5.0625 3.75 5.1875 3.84375 5.25 4.03125C5.60417 4.88542 5.78125 5.3125 5.78125 5.3125C5.84375 5.4375 5.85417 5.54167 5.8125 5.625C5.72917 5.8125 5.625 5.97917 5.5 6.125C5.375 6.25 5.30208 6.32292 5.28125 6.34375C5.26042 6.36458 5.27083 6.4375 5.3125 6.5625C5.60417 7.10417 5.91667 7.51042 6.25 7.78125C6.60417 8.05208 7.07292 8.33333 7.65625 8.625C7.82292 8.70833 7.94792 8.69792 8.03125 8.59375C8.30208 8.28125 8.48958 8.05208 8.59375 7.90625C8.67708 7.78125 8.80208 7.75 8.96875 7.8125C9.13542 7.875 9.53125 8.0625 10.1562 8.375Z" fill="#707070"/>
</svg>
