<svg width="20" height="20" viewBox="0 0 20 20" fill="none" xmlns="http://www.w3.org/2000/svg"><path d="M11.1726 10.0057L19.7458 1.43251C20.0766 1.11295 20.0858 0.585673 19.7663 0.254784C19.4467 -0.0761041 18.9194 -0.0852792 18.5885 0.234287C18.5816 0.240973 18.5748 0.247805 18.568 0.254784L9.9948 8.82796L1.42161 0.254735C1.09072 -0.0648304 0.56345 -0.0556554 0.243884 0.275233C-0.0678736 0.59802 -0.0678736 1.10973 0.243884 1.43251L8.81707 10.0057L0.243884 18.5789C-0.0812946 18.9041 -0.0812946 19.4314 0.243884 19.7566C0.569111 20.0817 1.09639 20.0817 1.42161 19.7566L9.9948 11.1834L18.568 19.7566C18.8989 20.0762 19.4261 20.067 19.7457 19.7361C20.0574 19.4133 20.0574 18.9016 19.7457 18.5789L11.1726 10.0057Z" fill="black"/></svg>
