<svg xmlns="http://www.w3.org/2000/svg" xmlns:xlink="http://www.w3.org/1999/xlink"><symbol id="icon-arr-left-thick" viewBox="0 0 13 21"><path data-name="Прямоугольник 1" d="M10.83 21.01L-.01 10.5 10.83-.01 13 2.09 4.32 10.5 13 18.91z" fill-rule="evenodd"/></symbol><symbol id="icon-arr-left" viewBox="0 0 10 17"><path d="M.47 7.292c.086-.086.177-.159.274-.222L7.212.482a1.596 1.596 0 012.286 0 1.668 1.668 0 010 2.329l-5.57 5.674 5.599 5.704a1.668 1.668 0 010 2.329 1.596 1.596 0 01-2.286 0L.744 9.898a1.612 1.612 0 01-.273-.22A1.653 1.653 0 010 8.484c-.009-.431.147-.864.47-1.193z"/></symbol><symbol id="icon-arr-right-thick" viewBox="0 0 12.71 21.18"><path data-name="Прямоугольник 1" d="M2.12-.02l10.61 10.61L2.12 21.2 0 19.08l8.48-8.49L0 2.1z" fill-rule="evenodd"/></symbol><symbol id="icon-arr-right" viewBox="0 0 10 17"><path d="M9.529 7.292a1.61 1.61 0 00-.273-.221L2.788.48A1.596 1.596 0 00.502.483a1.668 1.668 0 000 2.329l5.57 5.674L.474 14.19a1.668 1.668 0 000 2.328 1.597 1.597 0 002.285 0L9.256 9.9c.096-.063.189-.136.273-.222.323-.33.478-.762.47-1.193a1.652 1.652 0 00-.47-1.193z"/></symbol><symbol id="icon-mail" viewBox="0 0 16 12"><path d="M14.5 0h-13A1.5 1.5 0 000 1.5v9c0 .844.656 1.5 1.5 1.5h13a1.5 1.5 0 001.5-1.5v-9c0-.813-.688-1.5-1.5-1.5zm0 1.5v1.281c-.719.594-1.844 1.469-4.219 3.344C9.75 6.531 8.72 7.531 8 7.5c-.75.031-1.781-.969-2.313-1.375-2.375-1.875-3.5-2.75-4.187-3.344V1.5h13zm-13 9V4.719c.688.562 1.719 1.375 3.25 2.593C5.438 7.845 6.656 9.033 8 9c1.313.031 2.5-1.156 3.219-1.688A510.233 510.233 0 0114.5 4.72V10.5h-13z"/></symbol><symbol id="icon-menu-close" viewBox="0 0 20 20"><path d="M11.173 10.006l8.573-8.573A.833.833 0 1018.568.255L9.995 8.828 1.422.255A.833.833 0 00.244 1.433l8.573 8.573-8.573 8.573a.833.833 0 001.178 1.178l8.573-8.574 8.573 8.574a.833.833 0 001.178-1.178l-8.573-8.573z"/></symbol><symbol id="icon-menu-open" viewBox="0 0 37 29"><path d="M35.458 26H1.542C.69 26 0 26.672 0 27.5S.69 29 1.542 29h33.916C36.31 29 37 28.328 37 27.5s-.69-1.5-1.542-1.5zM35.5 0h-21a1.5 1.5 0 000 3h21a1.5 1.5 0 000-3zM35.458 9H1.542C.69 9 0 9.672 0 10.5S.69 12 1.542 12h33.916C36.31 12 37 11.328 37 10.5S36.31 9 35.458 9zM35.5 18h-21a1.5 1.5 0 000 3h21a1.5 1.5 0 000-3z"/></symbol><symbol id="icon-soc-fb" viewBox="0 0 16 16"><path d="M15.75 8A7.749 7.749 0 008 .25 7.749 7.749 0 00.25 8c0 3.875 2.813 7.094 6.531 7.656V10.25H4.813V8H6.78V6.312c0-1.937 1.157-3.03 2.907-3.03.874 0 1.75.155 1.75.155v1.907h-.97c-.968 0-1.28.593-1.28 1.218V8h2.156L11 10.25H9.187v5.406A7.74 7.74 0 0015.75 8z"/></symbol><symbol id="icon-soc-inst" viewBox="0 0 14 15"><path d="M7 3.406C5 3.406 3.406 5.031 3.406 7 3.406 9 5 10.594 7 10.594A3.594 3.594 0 0010.594 7c0-1.969-1.625-3.594-3.594-3.594zm0 5.938A2.34 2.34 0 014.656 7c0-1.281 1.032-2.313 2.344-2.313A2.307 2.307 0 019.313 7C9.313 8.313 8.28 9.344 7 9.344zm4.563-6.063a.84.84 0 00-.844-.844.84.84 0 00-.844.844.84.84 0 00.844.844.84.84 0 00.844-.844zm2.374.844C13.876 3 13.626 2 12.813 1.187 12 .375 11 .125 9.874.063 8.719 0 5.25 0 4.094.063 2.969.126 2 .376 1.156 1.188.344 2 .094 3 .031 4.126-.03 5.281-.03 8.75.031 9.906.094 11.031.344 12 1.156 12.844c.844.812 1.813 1.062 2.938 1.125 1.156.062 4.625.062 5.781 0 1.125-.063 2.125-.313 2.938-1.125.812-.844 1.062-1.813 1.124-2.938.063-1.156.063-4.625 0-5.781zm-1.5 7c-.218.625-.718 1.094-1.312 1.344-.938.375-3.125.281-4.125.281-1.031 0-3.219.094-4.125-.281a2.37 2.37 0 01-1.344-1.344C1.156 10.219 1.25 8.031 1.25 7c0-1-.094-3.188.281-4.125a2.41 2.41 0 011.344-1.313c.906-.375 3.094-.28 4.125-.28 1 0 3.188-.095 4.125.28.594.22 1.063.72 1.313 1.313.374.938.28 3.125.28 4.125 0 1.031.095 3.219-.28 4.125z"/></symbol><symbol id="icon-soc-pin" viewBox="0 0 16 16"><path d="M15.5 8A7.749 7.749 0 007.75.25 7.749 7.749 0 000 8a7.714 7.714 0 004.906 7.219c-.062-.594-.125-1.531.032-2.219.156-.594.906-3.844.906-3.844S5.625 8.687 5.625 8c0-1.063.625-1.875 1.406-1.875.657 0 .969.5.969 1.094 0 .656-.438 1.656-.656 2.593-.157.75.406 1.376 1.156 1.376 1.375 0 2.438-1.438 2.438-3.532 0-1.875-1.344-3.156-3.22-3.156-2.218 0-3.5 1.656-3.5 3.344 0 .687.25 1.406.563 1.781.063.063.063.156.063.219-.063.25-.219.781-.219.875-.031.156-.125.187-.281.125-.969-.469-1.563-1.875-1.563-3.031 0-2.438 1.781-4.688 5.125-4.688 2.688 0 4.782 1.938 4.782 4.5 0 2.656-1.688 4.813-4.032 4.813-.781 0-1.531-.407-1.781-.907 0 0-.375 1.5-.469 1.844-.187.688-.656 1.531-.968 2.031.718.25 1.5.344 2.312.344A7.749 7.749 0 0015.5 8z"/></symbol><symbol id="icon-soc-tw" viewBox="0 0 16 14"><path d="M14.344 3.75a6.952 6.952 0 001.625-1.688 6.151 6.151 0 01-1.875.5A3.206 3.206 0 0015.53.75a6.93 6.93 0 01-2.062.813A3.282 3.282 0 0011.063.53 3.28 3.28 0 007.78 3.812c0 .25.032.5.094.75a9.52 9.52 0 01-6.781-3.437 3.192 3.192 0 00-.438 1.656c0 1.125.563 2.125 1.469 2.719-.531-.031-1.063-.156-1.5-.406v.031A3.285 3.285 0 003.25 8.344c-.25.062-.563.125-.844.125-.219 0-.406-.031-.625-.063a3.265 3.265 0 003.063 2.281A6.597 6.597 0 01.78 12.095c-.281 0-.531-.031-.781-.063 1.438.938 3.156 1.469 5.031 1.469 6.032 0 9.313-4.969 9.313-9.313V3.75z"/></symbol><symbol id="icon-soc-whats" viewBox="0 0 14 14"><path d="M11.906 2.031C13.302 3.427 14 5.062 14 6.937c0 1.917-.688 3.553-2.063 4.907-1.374 1.354-3.02 2.031-4.937 2.031a6.753 6.753 0 01-3.313-.844L0 14l1-3.594a6.72 6.72 0 01-.938-3.469c0-1.916.678-3.552 2.032-4.906C3.448.677 5.084 0 7 0c1.917 0 3.552.677 4.906 2.031zM7 12.72c1.583 0 2.948-.563 4.094-1.688 1.146-1.146 1.719-2.51 1.719-4.094.02-1.541-.563-2.895-1.75-4.062C9.937 1.75 8.582 1.187 7 1.187c-1.583 0-2.948.563-4.094 1.688C1.781 4 1.22 5.355 1.22 6.938c0 1.104.302 2.125.906 3.062l.125.219-.594 2.125 2.188-.563.219.125A5.572 5.572 0 007 12.72zm3.156-4.344c.209.104.323.177.344.219.063.125.02.406-.125.844-.063.166-.23.343-.5.53-.25.167-.469.261-.656.282-.542.083-1.24-.063-2.094-.438-1.02-.437-2-1.312-2.938-2.624-.479-.646-.718-1.24-.718-1.782 0-.52.198-1.01.594-1.468a.708.708 0 01.468-.188h.344c.188 0 .313.094.375.281l.531 1.282c.063.125.073.229.032.312a2.028 2.028 0 01-.313.5l-.219.219c-.02.02-.01.093.032.218.291.542.604.948.937 1.22.354.27.823.551 1.406.843.167.083.292.073.375-.031.271-.313.459-.542.563-.688.083-.125.208-.156.375-.093.166.062.562.25 1.187.562z"/></symbol><symbol id="icon-soc-yout" viewBox="0 0 18 12"><path d="M17.188 1.875c.062.25.114.563.156.938.062.374.104.75.125 1.124.02.355.031.688.031 1 .02.313.031.573.031.782V6c0 1.875-.114 3.26-.343 4.156a2.18 2.18 0 01-.563.938c-.27.27-.594.458-.969.562-.396.104-1.146.188-2.25.25-1.104.042-2.114.073-3.031.094H9c-3.563 0-5.781-.115-6.656-.344-.813-.229-1.323-.729-1.531-1.5C.708 9.76.625 9.22.563 8.531.52 7.823.49 7.23.469 6.75V6c0-1.854.114-3.23.344-4.125.104-.375.291-.698.562-.969.27-.27.594-.458.969-.562C2.74.24 3.49.167 4.594.125A90.295 90.295 0 017.625 0H9c3.563 0 5.781.115 6.656.344.375.104.698.291.969.562.27.271.458.594.563.969zM7.25 8.563L11.719 6 7.25 3.469v5.094z"/></symbol><symbol id="icon-thin-left" viewBox="0 0 12 23"><path opacity="0.7" fill-rule="evenodd" clip-rule="evenodd" d="M.253 10.869L10.53.26a.841.841 0 011.218.002.914.914 0 01-.001 1.26L2.08 11.5l9.666 9.977a.914.914 0 01.002 1.26.845.845 0 01-1.219.003L.253 12.13A.906.906 0 010 11.5c0-.237.091-.464.253-.631z"/></symbol><symbol id="icon-thin-right" viewBox="0 0 12 23"><path opacity="0.7" fill-rule="evenodd" clip-rule="evenodd" d="M11.747 10.869L1.47.26A.841.841 0 00.252.262a.914.914 0 00.001 1.26L9.92 11.5.253 21.477a.914.914 0 00-.002 1.26.845.845 0 001.219.003L11.747 12.13A.906.906 0 0012 11.5a.909.909 0 00-.253-.631z"/></symbol><symbol id="icon-works-design" viewBox="0 0 48 42"><path fill-rule="evenodd" clip-rule="evenodd" d="M44.292 35.013l-35.607-.012c-.7-.008-1.079.038-2.012.404L.91 37.665c-.386.15-.626.472-.625.84 0 .364.246.694.623.84 1.89.743 5.766 2.263 5.766 2.263.873.342 1.251.38 1.871.38L22.498 42c.379 0 .686-.27.686-.603 0-.332-.307-.602-.686-.602H9.391V39.11h30.302v1.686h-13.79c-.378 0-.685.27-.685.602 0 .333.306.603.685.603h18.389c1.547 0 2.805-1.104 2.805-2.46v-2.066c0-1.357-1.258-2.46-2.805-2.46zM4.263 37.67v1.672l-.66-.259h-.001l-1.47-.577 2.131-.836zm1.372-.538v2.749c.5.196 2.18.843 2.385.885v-4.518c-.204.041-2.385.884-2.385.884zm3.756.772v-1.686h30.302v1.686H9.39zm34.9 2.89c.791 0 1.434-.562 1.434-1.255v-2.065c0-.692-.643-1.255-1.433-1.255h-3.228v4.576h3.228zM1.497 32l21.555-.002c.39 0 .707-.274.706-.611 0-.338-.316-.611-.706-.611l-21.356.002V5.848h2.822V26.27c0 .554.522 1.005 1.163 1.005h29.275c.483 0 .904-.226 1.071-.576.167-.348.056-.738-.295-1.042L12.79 5.848h25.966v19.371c0 .571.537 1.035 1.197 1.035h3.112c1.445 0 2.62 1.015 2.62 2.261 0 1.247-1.175 2.26-2.62 2.26H26.294c-.39 0-.706.274-.706.612 0 .337.316.61.706.61h16.771c2.223 0 4.032-1.562 4.032-3.482V5.611c0-1.922-1.809-3.485-4.032-3.485h-3.112c-.66 0-1.197.463-1.197 1.033v1.467H11.375L6.389.32c-.353-.305-.805-.399-1.21-.252a.975.975 0 00-.66.924v3.634H1.496c-.669 0-1.213.471-1.213 1.05V30.95c0 .58.544 1.051 1.213 1.051zM40.168 3.348h2.897c1.445 0 2.62 1.015 2.62 2.263V25.87a4.404 4.404 0 00-2.62-.838h-2.897V3.348zm-5.977 22.707L5.931 1.65v24.405h3.028v-.858c0-.338.316-.611.706-.611.39 0 .706.273.706.61v.858h3.03V24.39c0-.337.317-.61.707-.61.39 0 .706.273.706.61v1.666h3.028v-.858c0-.338.317-.611.706-.611.39 0 .706.273.706.61v.858h3.032V24.39c0-.337.316-.61.706-.61.39 0 .706.273.706.61v1.666h3.028v-.858c0-.338.316-.611.706-.611.39 0 .706.273.706.61v.858h6.053z"/><path fill-rule="evenodd" clip-rule="evenodd" d="M19.338 22H12.26c-.504 0-.83-.293-.83-.746v-6.348c0-.24 0-.686.46-.856.452-.168.778.126 1.016.341l7.007 6.283c.239.214.565.507.378.913-.19.413-.686.413-.953.413zm-1.036-1.148l-5.595-5.017v5.017h5.595z"/></symbol><symbol id="icon-works-measure" viewBox="0 0 38 26"><path fill-rule="evenodd" clip-rule="evenodd" d="M23.67 19.13h13.514c.45 0 .816.397.816.886V25.396c0 .334-.25.604-.557.604-.307 0-.556-.27-.556-.604v-1.963H30.91c-.307 0-.556-.27-.556-.604 0-.334.249-.605.556-.605h5.977V20.338H23.67v1.886h4.974c.308 0 .557.271.557.605 0 .334-.25.604-.557.604H23.67v1.107c0 .609-.458 1.104-1.02 1.104H11.835C5.309 25.644 0 19.892 0 12.822 0 5.752 5.31 0 11.835 0c5.213 0 9.649 3.67 11.223 8.751h2.012c.485 0 .879.385.98.957l.762 4.297c.065.362-.001.697-.187.942a.936.936 0 01-.767.365H23.67v3.818zm2.026-5.027l-.735-4.143h-1.589c.195.92.298 1.879.298 2.862v1.281h2.026zm-24.568-.676h2.144c.15 0 .355-.015.526-.202.184-.204.179-.446.176-.575a2.32 2.32 0 010-.143 8.957 8.957 0 011.374-4.506.638.638 0 00-.142-.84.53.53 0 00-.774.154 10.216 10.216 0 00-1.56 4.903H1.128c.281-5.924 4.68-10.69 10.15-10.994v1.89c-1.753.115-3.417.777-4.826 1.921a.64.64 0 00-.113.846.526.526 0 00.78.122c1.286-1.044 2.815-1.63 4.423-1.693.053-.002.095-.001.128 0h.005c.122.002.344.006.53-.193.19-.204.188-.446.187-.622v-2.27c5.654.314 10.165 5.396 10.165 11.597v8.514H12.261c-.543 0-.984.479-.984 1.067v2.017c-5.47-.305-9.869-5.07-10.15-10.994zm11.264 11.009h10.165v-1.891H12.392v1.89z"/><path fill-rule="evenodd" clip-rule="evenodd" d="M17.198 19.933h-5.322c-3.493 0-6.334-2.916-6.334-6.5s2.841-6.5 6.334-6.5c3.492 0 6.332 2.916 6.332 6.5v5.46c0 .574-.453 1.04-1.01 1.04zm-.115-6.5c0-2.946-2.336-5.342-5.207-5.342-2.872 0-5.209 2.396-5.209 5.341 0 2.947 2.337 5.344 5.209 5.344h5.207v-5.344z"/><path fill-rule="evenodd" clip-rule="evenodd" d="M13.899 15.6H9.852c-.63 0-1.143-.489-1.143-1.09v-2.156c0-.6.512-1.087 1.143-1.087h4.047c.63 0 1.143.488 1.143 1.087v2.156c0 .601-.513 1.09-1.143 1.09zm-.129-3.123H9.98v1.912h3.79v-1.912z"/></symbol><symbol id="icon-works-production" viewBox="0 0 38 34"><path fill-rule="evenodd" clip-rule="evenodd" d="M35.742 9.63h.588c.92 0 1.67.838 1.67 1.867V23.04c0 1.715-1.248 3.11-2.783 3.11h-1.734v6.102c0 .964-.701 1.748-1.564 1.748-.816 0-1.502-.713-1.56-1.624l-.395-6.225H13.805c-.307 0-.556-.28-.556-.623 0-.343.249-.622.556-.622h21.412c.92 0 1.67-.837 1.67-1.867V11.497c0-.343-.25-.622-.557-.622h-2.29c-.269 0-.493.213-.545.497a.686.686 0 00-.012.125v2.98h.897c.748 0 1.356.68 1.356 1.516v3.592c0 .837-.608 1.517-1.356 1.517H3.62c-.748 0-1.356-.68-1.356-1.517v-3.592c0-.836.608-1.517 1.356-1.517h.897v-2.98a.694.694 0 00-.012-.124c-.052-.284-.276-.497-.545-.497H1.67c-.307 0-.557.279-.557.622v11.542c0 1.03.75 1.867 1.67 1.867h8.425c.307 0 .556.279.556.622 0 .344-.249.623-.556.623H8.036l-.396 6.225C7.582 33.286 6.897 34 6.08 34c-.862 0-1.563-.784-1.563-1.748v-6.101H2.783C1.25 26.15 0 24.755 0 23.04V11.497c0-1.03.75-1.867 1.67-1.867h.588V2.862C2.258 1.284 3.408 0 4.82 0h12.177c.811 0 1.535.424 2.004 1.084C19.47.424 20.193 0 21.004 0H33.18c1.25 0 2.311.998 2.523 2.373.053.339-.15.66-.454.72-.303.057-.59-.17-.643-.508-.12-.777-.72-1.34-1.426-1.34H21.004c-.798 0-1.447.725-1.447 1.617v11.639l.01-.002.015-.004c.095-.022.195-.022 5.143-.02h.004l7.64.001v-2.98c0-1.028.75-1.866 1.67-1.866h.59V5.38c0-.343.248-.622.556-.622.307 0 .557.279.557.623v4.25zM6.675 32.286l.335-6.164H5.903v6.128c0 .28.173.506.386.506.202 0 .372-.206.386-.47zM34.68 19.63c0 .15-.11.272-.245.272H19.553V16.03c0-.15.11-.273.245-.273h14.637c.135 0 .245.122.245.273v3.6zM3.32 9.637h.591c.924 0 1.676.838 1.676 1.869v2.982l7.69-.002h.004c4.975-.001 5.06-.001 5.139.02l.027.006V2.863c0-.893-.652-1.62-1.453-1.62H4.773c-.801 0-1.453.727-1.453 1.62v6.774zm0 9.993v-3.601c0-.15.11-.273.245-.273h14.637c.135 0 .245.122.245.273v3.873H3.565c-.135 0-.245-.122-.245-.272zm28.39 13.126c.214 0 .387-.227.387-.506v-6.128H30.99l.335 6.164c.015.264.184.47.386.47z"/></symbol><symbol id="icon-zoom" viewBox="0 0 17 17"><path fill-rule="evenodd" clip-rule="evenodd" d="M11.958 10.957l4.834 4.834a.708.708 0 11-1.001 1.001l-4.835-4.834a6.697 6.697 0 01-4.227 1.5A6.737 6.737 0 010 6.73C0 3.02 3.019 0 6.73 0c3.71 0 6.728 3.019 6.728 6.73 0 1.6-.564 3.07-1.5 4.226zM1.417 6.729a5.318 5.318 0 005.312 5.313 5.318 5.318 0 005.312-5.313A5.318 5.318 0 006.73 1.417a5.318 5.318 0 00-5.312 5.312z"/></symbol> <view id="icon-arr-left-thick-view-black" viewBox="0 0 13 21"/><view id="icon-arr-left-thick-view-grey" viewBox="0 31 13 21"/><view id="icon-arr-left-thick-view-white" viewBox="0 62 13 21"/><view id="icon-arr-left-view-black" viewBox="0 93 10 17"/><view id="icon-arr-left-view-grey" viewBox="0 120 10 17"/><view id="icon-arr-left-view-white" viewBox="0 147 10 17"/><view id="icon-arr-right-thick-view-black" viewBox="0 174 12.71 21.18"/><view id="icon-arr-right-thick-view-grey" viewBox="0 205.18 12.71 21.18"/><view id="icon-arr-right-thick-view-white" viewBox="0 236.36 12.71 21.18"/><view id="icon-arr-right-view-black" viewBox="0 267.53999999999996 10 17"/><view id="icon-arr-right-view-grey" viewBox="0 294.53999999999996 10 17"/><view id="icon-arr-right-view-white" viewBox="0 321.53999999999996 10 17"/><view id="icon-mail-view-black" viewBox="0 348.53999999999996 16 12"/><view id="icon-mail-view-grey" viewBox="0 370.53999999999996 16 12"/><view id="icon-mail-view-white" viewBox="0 392.53999999999996 16 12"/><view id="icon-menu-close-view-black" viewBox="0 414.53999999999996 20 20"/><view id="icon-menu-close-view-grey" viewBox="0 444.53999999999996 20 20"/><view id="icon-menu-close-view-white" viewBox="0 474.53999999999996 20 20"/><view id="icon-menu-open-view-black" viewBox="0 504.53999999999996 37 29"/><view id="icon-menu-open-view-grey" viewBox="0 543.54 37 29"/><view id="icon-menu-open-view-white" viewBox="0 582.54 37 29"/><view id="icon-soc-fb-view-black" viewBox="0 621.54 16 16"/><view id="icon-soc-fb-view-grey" viewBox="0 647.54 16 16"/><view id="icon-soc-fb-view-white" viewBox="0 673.54 16 16"/><view id="icon-soc-inst-view-black" viewBox="0 699.54 14 15"/><view id="icon-soc-inst-view-grey" viewBox="0 724.54 14 15"/><view id="icon-soc-inst-view-white" viewBox="0 749.54 14 15"/><view id="icon-soc-pin-view-black" viewBox="0 774.54 16 16"/><view id="icon-soc-pin-view-grey" viewBox="0 800.54 16 16"/><view id="icon-soc-pin-view-white" viewBox="0 826.54 16 16"/><view id="icon-soc-tw-view-black" viewBox="0 852.54 16 14"/><view id="icon-soc-tw-view-grey" viewBox="0 876.54 16 14"/><view id="icon-soc-tw-view-white" viewBox="0 900.54 16 14"/><view id="icon-soc-whats-view-black" viewBox="0 924.54 14 14"/><view id="icon-soc-whats-view-grey" viewBox="0 948.54 14 14"/><view id="icon-soc-whats-view-white" viewBox="0 972.54 14 14"/><view id="icon-soc-yout-view-black" viewBox="0 996.54 18 12"/><view id="icon-soc-yout-view-grey" viewBox="0 1018.54 18 12"/><view id="icon-soc-yout-view-white" viewBox="0 1040.54 18 12"/><view id="icon-thin-left-view-black" viewBox="0 1062.54 12 23"/><view id="icon-thin-left-view-grey" viewBox="0 1095.54 12 23"/><view id="icon-thin-left-view-white" viewBox="0 1128.54 12 23"/><view id="icon-thin-right-view-black" viewBox="0 1161.54 12 23"/><view id="icon-thin-right-view-grey" viewBox="0 1194.54 12 23"/><view id="icon-thin-right-view-white" viewBox="0 1227.54 12 23"/><view id="icon-works-design-view-black" viewBox="0 1260.54 48 42"/><view id="icon-works-design-view-grey" viewBox="0 1312.54 48 42"/><view id="icon-works-design-view-white" viewBox="0 1364.54 48 42"/><view id="icon-works-measure-view-black" viewBox="0 1416.54 38 26"/><view id="icon-works-measure-view-grey" viewBox="0 1452.54 38 26"/><view id="icon-works-measure-view-white" viewBox="0 1488.54 38 26"/><view id="icon-works-production-view-black" viewBox="0 1524.54 38 34"/><view id="icon-works-production-view-grey" viewBox="0 1568.54 38 34"/><view id="icon-works-production-view-white" viewBox="0 1612.54 38 34"/><view id="icon-zoom-view-black" viewBox="0 1656.54 17 17"/><view id="icon-zoom-view-grey" viewBox="0 1683.54 17 17"/><view id="icon-zoom-view-white" viewBox="0 1710.54 17 17"/> <use xlink:href="#icon-arr-left-thick" x="0" y="0" width="13" height="21" style="fill:#363838"/><use xlink:href="#icon-arr-left-thick" x="0" y="31" width="13" height="21" style="fill:#5a5a5a"/><use xlink:href="#icon-arr-left-thick" x="0" y="62" width="13" height="21" style="fill:#ffffff"/><use xlink:href="#icon-arr-left" x="0" y="93" width="10" height="17" style="fill:#363838"/><use xlink:href="#icon-arr-left" x="0" y="120" width="10" height="17" style="fill:#5a5a5a"/><use xlink:href="#icon-arr-left" x="0" y="147" width="10" height="17" style="fill:#ffffff"/><use xlink:href="#icon-arr-right-thick" x="0" y="174" width="12.71" height="21.18" style="fill:#363838"/><use xlink:href="#icon-arr-right-thick" x="0" y="205.18" width="12.71" height="21.18" style="fill:#5a5a5a"/><use xlink:href="#icon-arr-right-thick" x="0" y="236.36" width="12.71" height="21.18" style="fill:#ffffff"/><use xlink:href="#icon-arr-right" x="0" y="267.53999999999996" width="10" height="17" style="fill:#363838"/><use xlink:href="#icon-arr-right" x="0" y="294.53999999999996" width="10" height="17" style="fill:#5a5a5a"/><use xlink:href="#icon-arr-right" x="0" y="321.53999999999996" width="10" height="17" style="fill:#ffffff"/><use xlink:href="#icon-mail" x="0" y="348.53999999999996" width="16" height="12" style="fill:#363838"/><use xlink:href="#icon-mail" x="0" y="370.53999999999996" width="16" height="12" style="fill:#5a5a5a"/><use xlink:href="#icon-mail" x="0" y="392.53999999999996" width="16" height="12" style="fill:#ffffff"/><use xlink:href="#icon-menu-close" x="0" y="414.53999999999996" width="20" height="20" style="fill:#363838"/><use xlink:href="#icon-menu-close" x="0" y="444.53999999999996" width="20" height="20" style="fill:#5a5a5a"/><use xlink:href="#icon-menu-close" x="0" y="474.53999999999996" width="20" height="20" style="fill:#ffffff"/><use xlink:href="#icon-menu-open" x="0" y="504.53999999999996" width="37" height="29" style="fill:#363838"/><use xlink:href="#icon-menu-open" x="0" y="543.54" width="37" height="29" style="fill:#5a5a5a"/><use xlink:href="#icon-menu-open" x="0" y="582.54" width="37" height="29" style="fill:#ffffff"/><use xlink:href="#icon-soc-fb" x="0" y="621.54" width="16" height="16" style="fill:#363838"/><use xlink:href="#icon-soc-fb" x="0" y="647.54" width="16" height="16" style="fill:#5a5a5a"/><use xlink:href="#icon-soc-fb" x="0" y="673.54" width="16" height="16" style="fill:#ffffff"/><use xlink:href="#icon-soc-inst" x="0" y="699.54" width="14" height="15" style="fill:#363838"/><use xlink:href="#icon-soc-inst" x="0" y="724.54" width="14" height="15" style="fill:#5a5a5a"/><use xlink:href="#icon-soc-inst" x="0" y="749.54" width="14" height="15" style="fill:#ffffff"/><use xlink:href="#icon-soc-pin" x="0" y="774.54" width="16" height="16" style="fill:#363838"/><use xlink:href="#icon-soc-pin" x="0" y="800.54" width="16" height="16" style="fill:#5a5a5a"/><use xlink:href="#icon-soc-pin" x="0" y="826.54" width="16" height="16" style="fill:#ffffff"/><use xlink:href="#icon-soc-tw" x="0" y="852.54" width="16" height="14" style="fill:#363838"/><use xlink:href="#icon-soc-tw" x="0" y="876.54" width="16" height="14" style="fill:#5a5a5a"/><use xlink:href="#icon-soc-tw" x="0" y="900.54" width="16" height="14" style="fill:#ffffff"/><use xlink:href="#icon-soc-whats" x="0" y="924.54" width="14" height="14" style="fill:#363838"/><use xlink:href="#icon-soc-whats" x="0" y="948.54" width="14" height="14" style="fill:#5a5a5a"/><use xlink:href="#icon-soc-whats" x="0" y="972.54" width="14" height="14" style="fill:#ffffff"/><use xlink:href="#icon-soc-yout" x="0" y="996.54" width="18" height="12" style="fill:#363838"/><use xlink:href="#icon-soc-yout" x="0" y="1018.54" width="18" height="12" style="fill:#5a5a5a"/><use xlink:href="#icon-soc-yout" x="0" y="1040.54" width="18" height="12" style="fill:#ffffff"/><use xlink:href="#icon-thin-left" x="0" y="1062.54" width="12" height="23" style="fill:#363838"/><use xlink:href="#icon-thin-left" x="0" y="1095.54" width="12" height="23" style="fill:#5a5a5a"/><use xlink:href="#icon-thin-left" x="0" y="1128.54" width="12" height="23" style="fill:#ffffff"/><use xlink:href="#icon-thin-right" x="0" y="1161.54" width="12" height="23" style="fill:#363838"/><use xlink:href="#icon-thin-right" x="0" y="1194.54" width="12" height="23" style="fill:#5a5a5a"/><use xlink:href="#icon-thin-right" x="0" y="1227.54" width="12" height="23" style="fill:#ffffff"/><use xlink:href="#icon-works-design" x="0" y="1260.54" width="48" height="42" style="fill:#363838"/><use xlink:href="#icon-works-design" x="0" y="1312.54" width="48" height="42" style="fill:#5a5a5a"/><use xlink:href="#icon-works-design" x="0" y="1364.54" width="48" height="42" style="fill:#ffffff"/><use xlink:href="#icon-works-measure" x="0" y="1416.54" width="38" height="26" style="fill:#363838"/><use xlink:href="#icon-works-measure" x="0" y="1452.54" width="38" height="26" style="fill:#5a5a5a"/><use xlink:href="#icon-works-measure" x="0" y="1488.54" width="38" height="26" style="fill:#ffffff"/><use xlink:href="#icon-works-production" x="0" y="1524.54" width="38" height="34" style="fill:#363838"/><use xlink:href="#icon-works-production" x="0" y="1568.54" width="38" height="34" style="fill:#5a5a5a"/><use xlink:href="#icon-works-production" x="0" y="1612.54" width="38" height="34" style="fill:#ffffff"/><use xlink:href="#icon-zoom" x="0" y="1656.54" width="17" height="17" style="fill:#363838"/><use xlink:href="#icon-zoom" x="0" y="1683.54" width="17" height="17" style="fill:#5a5a5a"/><use xlink:href="#icon-zoom" x="0" y="1710.54" width="17" height="17" style="fill:#ffffff"/></svg>